<?xml version="1.0" encoding="utf-8"?>
<!-- Generator: Adobe Illustrator 18.1.1, SVG Export Plug-In . SVG Version: 6.00 Build 0)  -->
<!DOCTYPE svg PUBLIC "-//W3C//DTD SVG 1.1//EN" "http://www.w3.org/Graphics/SVG/1.1/DTD/svg11.dtd">
<svg version="1.1" id="Layer_1" xmlns="http://www.w3.org/2000/svg" xmlns:xlink="http://www.w3.org/1999/xlink" x="0px" y="0px"
	 viewBox="0 0 500 500" enable-background="new 0 0 500 500" xml:space="preserve">
<g opacity="5.000000e-02">
	<path fill="#FFFFFF" d="M128.6,253.4c-54.9,16.9-75.7,39.8-75.7,96.4v57.7c0,50.7,26.5,80.3,84.2,80.3c37.8,0,61.5-13.5,93.7-32.1
		l7.9-4.7c16,16.7,34,27.6,79.1,27.6h7.6c76.6,0,115.4-34.7,115.4-103.2v-54.1h-70V378c0,27.1-15.2,41.4-45.4,41.4h-5.7
		c-30.3,0-45.4-14.4-45.4-41.4V275.9l96.5-29.6c54.9-16.9,75.7-39.7,75.7-96.4V92.2c0-50.7-26.5-80.3-84.2-80.3
		c-37.8,0-61.5,13.5-93.6,32.1l-7.9,4.7c-16-16.7-34-27.6-79.1-27.6H174c-76.6,0-115.4,34.7-115.4,103.2v54.1h70v-56.7
		c0-27.1,15.1-41.4,45.4-41.4h5.7c30.3,0,45.4,14.4,45.4,41.4v102.1L128.6,253.4z M225.1,405.7c-23.7,14.5-43.5,21.4-65.3,21.4
		c-22.7,0-35-11.1-35-33.3V354c0-26.5,8.5-39.3,35-47.9l65.3-20.5V405.7z M274.3,94.1c23.7-14.5,43.5-21.4,65.3-21.4
		c22.7,0,35,11.1,35,33.3v39.7c0,26.5-8.5,39.3-35,47.9l-65.3,20.5V94.1z"/>
</g>
<g>
	<defs>
		<path id="SVGID_1_" d="M362.3,11.9c57.7,0,84.2,29.6,84.2,80.3v57.7c0,56.7-20.8,79.5-75.7,96.4l-96.5,29.6V378
			c0,27.1,15.1,41.4,45.4,41.4h5.7c30.3,0,45.4-14.4,45.4-41.4v-56.7h70v54.1c0,68.5-38.8,103.2-115.4,103.2h-7.6
			c-45.1,0-63.1-10.9-79.1-27.6l-7.9,4.7c-32.2,18.6-55.8,32.1-93.7,32.1c-57.7,0-84.2-29.6-84.2-80.3v-57.7
			c0-56.6,20.8-79.5,75.7-96.4l96.5-29.6V121.8c0-27.1-15.1-41.4-45.4-41.4H174c-30.3,0-45.4,14.4-45.4,41.4v56.7h-70v-54.1
			C58.6,55.8,97.4,21.1,174,21.1h7.6c45.1,0,63.1,10.8,79.1,27.6l7.9-4.7C300.8,25.4,324.5,11.9,362.3,11.9 M274.3,214.1l65.3-20.5
			c26.5-8.6,35-21.4,35-47.9v-39.7c0-22.2-12.3-33.3-35-33.3c-21.8,0-41.6,6.8-65.3,21.4V214.1 M159.8,427
			c21.8,0,41.6-6.8,65.3-21.4v-120l-65.3,20.5c-26.5,8.6-35,21.4-35,47.9v39.7C124.8,415.9,137.1,427,159.8,427 M283,99.1
			c21-12.3,38.1-17.6,56.5-17.6c18.2,0,26.3,7.6,26.3,24.6v39.7c0,12-1.8,19.8-5.9,25.6c-4.2,5.8-11.5,10.2-23,14L283,202.2V99.1
			L283,99.1z M162.5,314.5l53.9-16.9v103.1c-21,12.3-38.1,17.6-56.6,17.6c-18.2,0-26.3-7.6-26.3-24.6V354c0-12,1.8-19.9,5.9-25.6
			C143.7,322.7,151,318.2,162.5,314.5L162.5,314.5z M362.3,3.1c-40.5,0-65.9,14.7-98,33.3l0,0l0,0l-2.1,1.2
			c-16.9-15.8-37.7-25.4-80.5-25.4H174c-40.3,0-71.4,9.5-92.3,28.1c-21.2,18.9-31.9,47.1-31.9,83.8v54.1v8.7h8.7h70h8.7v-8.7v-56.7
			c0-11,2.9-19.2,8.5-24.4c5.9-5.5,15.4-8.3,28.1-8.3h5.7c12.7,0,22.2,2.8,28.1,8.3c5.7,5.2,8.5,13.4,8.5,24.4v95.6l-90.3,27.7
			c-30.8,9.5-50.1,20.6-62.7,36.2c-13.3,16.4-19.2,37.6-19.2,68.6v57.7c0,28.2,7.8,50.2,23,65.4c15.8,15.7,39.3,23.7,69.9,23.7
			c40.5,0,65.9-14.7,98-33.3l0,0l0,0l2.1-1.2c16.9,15.8,37.7,25.4,80.5,25.4h7.6c40.3,0,71.4-9.5,92.3-28.1
			c21.2-18.9,31.9-47.1,31.9-83.8v-54.1v-8.7h-8.7h-70h-8.7v8.7V378c0,11-2.9,19.2-8.5,24.4c-5.9,5.5-15.4,8.3-28.1,8.3h-5.7
			c-12.7,0-22.2-2.8-28.1-8.3c-5.7-5.2-8.5-13.4-8.5-24.4v-95.6l90.3-27.7c30.8-9.5,50.1-20.6,62.6-36.2
			c13.3-16.4,19.2-37.6,19.2-68.6V92.2c0-28.2-7.8-50.2-23-65.4C416.4,11.1,392.8,3.1,362.3,3.1L362.3,3.1z"/>
	</defs>
	<clipPath id="SVGID_2_">
		<use xlink:href="#SVGID_1_"  overflow="visible"/>
	</clipPath>
	<linearGradient id="SVGID_3_" gradientUnits="userSpaceOnUse" x1="-73.9495" y1="250.0079" x2="573.3572" y2="250.0079">
		<stop  offset="0" style="stop-color:#FF087E"/>
		<stop  offset="1" style="stop-color:#0DD1FF"/>
	</linearGradient>
	<rect x="-73.9" y="-7.6" clip-path="url(#SVGID_2_)" fill="url(#SVGID_3_)" width="647.3" height="515.3"/>
</g>
</svg>
